<svg width="230" height="206" viewBox="0 0 230 206" fill="none" xmlns="http://www.w3.org/2000/svg">
<g clip-path="url(#clip0_22_1635)">
<path d="M117.179 169.544H219.938C223.9 169.544 227.069 166.539 227.069 162.585C227.069 158.631 223.9 155.548 219.938 155.548H117.179C113.218 155.548 110.127 158.631 110.127 162.585C110.127 166.539 113.218 169.544 117.179 169.544Z" fill="white" fill-opacity="0.85"/>
<path d="M43.4964 206C67.1857 206 86.9136 186.309 86.9136 162.585C86.9136 138.783 67.1857 119.171 43.4964 119.171C19.5694 119.171 0 138.862 0 162.585C0 186.309 19.6487 206 43.4964 206ZM43.4964 193.189C26.7792 193.189 12.835 179.192 12.835 162.585C12.835 145.979 26.8585 131.903 43.4964 131.903C60.0551 131.903 74.0786 145.979 74.0786 162.585C74.0786 179.192 60.0551 193.189 43.4964 193.189Z" fill="white" fill-opacity="0.85"/>
<path d="M117.179 50.7683H219.938C223.9 50.7683 227.069 47.7634 227.069 43.7304C227.069 39.7764 223.9 36.7715 219.938 36.7715H117.179C113.218 36.7715 110.127 39.7764 110.127 43.7304C110.127 47.7634 113.218 50.7683 117.179 50.7683Z" fill="white" fill-opacity="0.85"/>
<path d="M43.4964 87.1445C67.1857 87.1445 86.9136 67.4541 86.9136 43.6514C86.9136 19.9279 67.1857 0.316406 43.4964 0.316406C19.5694 0.316406 0 19.9279 0 43.6514C0 67.375 19.6487 87.1445 43.4964 87.1445ZM38.2674 67.375C36.3658 67.375 35.0982 66.347 33.7513 64.8445L21.5501 50.4522C20.7578 49.4242 20.3617 48.3961 20.3617 46.8146C20.3617 44.1259 22.5009 41.9908 25.1154 41.9908C26.8585 41.9908 28.1261 42.7025 29.3145 44.205L38.1089 55.0388L57.1237 24.8308C58.2328 23.091 59.7382 22.1421 61.402 22.1421C64.0958 22.1421 66.3142 24.1981 66.3142 26.6496C66.3142 27.9149 65.918 29.0219 64.9673 30.4454L43.021 64.7654C41.9119 66.426 40.3272 67.375 38.2674 67.375Z" fill="white" fill-opacity="0.85"/>
</g>
<defs>
<clipPath id="clip0_22_1635">
<rect width="230" height="206" fill="white"/>
</clipPath>
</defs>
</svg>
