<svg width="230" height="340" viewBox="0 0 230 340" fill="none" xmlns="http://www.w3.org/2000/svg">
<g clip-path="url(#clip0_23_1648)">
<path d="M26.9597 120.975C30.8658 120.975 34.3889 117.677 34.3889 113.768C34.3889 109.782 30.8658 106.408 26.9597 106.408H7.19946C3.29337 106.408 0 109.858 0 113.768C0 117.601 3.29337 120.975 7.19946 120.975H26.9597ZM47.1794 57.6506C49.9367 60.3338 54.532 60.4104 57.3659 57.6506C60.2764 54.7374 60.1997 50.2142 57.3659 47.3778L43.5032 33.3484C40.8225 30.5119 36.1505 30.5119 33.2401 33.3484C30.4828 36.2616 30.4828 40.7081 33.2401 43.5446L47.1794 57.6506ZM106.384 27.0621C106.384 30.9718 109.6 34.345 113.507 34.345C117.565 34.345 120.859 30.9718 120.859 27.0621V7.28298C120.859 3.37318 117.489 0 113.507 0C109.6 0 106.384 3.37318 106.384 7.28298V27.0621ZM169.647 47.3778C166.813 50.2142 166.737 54.7374 169.647 57.6506C172.481 60.4871 177.076 60.4104 179.833 57.6506L193.849 43.5446C196.683 40.7081 196.683 36.2616 193.849 33.3484C190.939 30.5119 186.497 30.5119 183.663 33.3484L169.647 47.3778ZM219.813 120.975C223.719 120.975 227.166 117.601 227.166 113.768C227.166 109.858 223.719 106.408 219.813 106.408H200.053C196.147 106.408 192.777 109.782 192.777 113.768C192.777 117.677 196.147 120.975 200.053 120.975H219.813Z" fill="white" fill-opacity="0.85"/>
<path d="M113.507 52.5908C79.3475 52.5908 52.3877 77.8896 52.3877 109.168C52.3877 143.82 73.4499 153.019 79.1945 215.346C79.5004 218.719 81.2619 220.712 84.8617 220.712H142.228C145.828 220.712 147.589 218.719 147.895 215.346C153.639 153.019 174.779 143.82 174.779 109.168C174.779 77.8896 147.742 52.5908 113.507 52.5908ZM84.8617 239.802H142.304C145.291 239.802 147.589 237.502 147.589 234.512C147.589 231.522 145.291 229.299 142.304 229.299H84.8617C81.8752 229.299 79.6533 231.522 79.6533 234.512C79.6533 237.502 81.8752 239.802 84.8617 239.802ZM113.583 266.174C127.982 266.174 139.7 258.968 140.39 248.388H86.777C87.3895 258.968 99.1074 266.174 113.583 266.174Z" fill="white" fill-opacity="0.85"/>
</g>
<defs>
<clipPath id="clip0_23_1648">
<rect width="230" height="340" fill="white"/>
</clipPath>
</defs>
</svg>
