<svg width="230" height="191" viewBox="0 0 230 191" fill="none" xmlns="http://www.w3.org/2000/svg">
<g clip-path="url(#clip0_22_1622)">
<path d="M113.645 190.854C166.324 190.854 209.038 148.14 209.038 95.4633C209.038 42.7863 166.324 0 113.645 0C60.9655 0 18.2509 42.7863 18.2509 95.4633H31.8786C31.8786 50.2593 68.4387 13.7004 113.645 13.7004C158.85 13.7004 195.41 50.2593 195.41 95.4633C195.41 140.667 158.85 177.226 113.645 177.226C85.6564 177.226 60.6725 163.013 46.3854 141.62C43.9676 138.323 40.1577 137.297 36.7874 139.348C33.5637 141.253 32.6112 145.722 35.2488 149.312C52.32 174.443 81.1872 190.854 113.645 190.854ZM6.01532 77.7332C0.00743357 77.7332 -1.67771 81.8362 1.76584 86.5986L22.5736 116.197C25.3578 120.227 29.3875 120.153 32.0983 116.197L52.9061 86.5251C56.2032 81.8362 54.5913 77.7332 48.6567 77.7332H6.01532Z" fill="white" fill-opacity="0.85"/>
<path d="M113.645 41.028C109.835 41.028 106.757 44.0318 106.757 47.9148V101.178C106.757 103.449 107.417 105.134 108.882 107.112L131.815 137.297C134.818 141.18 138.995 141.693 142.365 139.202C145.369 137.004 145.809 132.901 143.098 129.311L113.425 89.0158L120.531 110.922V47.9148C120.531 44.0318 117.454 41.028 113.645 41.028Z" fill="white" fill-opacity="0.85"/>
</g>
<defs>
<clipPath id="clip0_22_1622">
<rect width="230" height="191" fill="white"/>
</clipPath>
</defs>
</svg>
