<svg width="23" height="25" viewBox="0 0 23 25" fill="none" xmlns="http://www.w3.org/2000/svg">
<g clip-path="url(#clip0_240_595)">
<path d="M1.8457 24.8047C2.30469 24.8047 2.66602 24.4336 2.66602 23.9746V16.7676C3.02734 16.6602 4.19922 16.1719 6.12305 16.1719C10.7422 16.1719 13.5938 18.4375 18.0078 18.4375C19.9121 18.4375 20.6836 18.2227 21.6016 17.8125C22.4121 17.4414 22.9492 16.8457 22.9492 15.8203V3.19336C22.9492 2.55859 22.4414 2.20703 21.7871 2.20703C21.1816 2.20703 20.0195 2.7539 17.8516 2.7539C13.4277 2.7539 10.5762 0.488281 5.9668 0.488281C4.0625 0.488281 3.30078 0.703125 2.38281 1.11328C1.5625 1.48437 1.02539 2.08007 1.02539 3.10546V23.9746C1.02539 24.4238 1.40625 24.8047 1.8457 24.8047ZM18.0078 16.7969C13.7793 16.7969 10.8887 14.541 6.12305 14.541C4.80469 14.541 3.57422 14.6875 2.66602 15.0293V3.125C2.86133 2.69531 3.99414 2.1289 5.9668 2.1289C10.3906 2.1289 13.2812 4.38476 17.8516 4.38476C19.1797 4.38476 20.3027 4.23828 21.3184 3.94531V15.8008C21.123 16.2305 19.9902 16.7969 18.0078 16.7969Z" fill="white"/>
</g>
<defs>
<clipPath id="clip0_240_595">
<rect width="22.9492" height="24.3457" fill="white" transform="translate(0 0.458984)"/>
</clipPath>
</defs>
</svg>
