<svg width="32" height="30" viewBox="0 0 32 30" fill="none" xmlns="http://www.w3.org/2000/svg">
<g clip-path="url(#clip0_177_835)">
<path d="M2.83007 28.5989C3.92382 29.7024 5.15429 29.6145 6.26757 28.345L18.3867 14.6536L14.7637 11.0305L1.01366 23.1008C-0.255871 24.2141 -0.32423 25.4446 0.759754 26.5383L2.83007 28.5989ZM25.1543 17.886C25.6426 18.3548 26.1992 18.384 26.668 17.9153L30.4863 14.1165C30.9453 13.6575 30.916 13.0715 30.4473 12.6028L29.5 11.6653C28.9824 11.1575 28.6797 11.0891 28.0937 11.1282L26.7851 11.2649L25.7598 10.2493L26.1601 8.54033C26.3555 7.68095 26.0723 6.84111 25.2031 5.98173L22.5957 3.39384C19.1191 -0.063189 12.8008 -0.444051 9.28514 3.07158C8.71874 3.63798 8.80663 4.28251 9.15819 4.68291C9.44139 4.97587 9.89061 5.12236 10.3301 4.99541C12.7715 4.33134 14.8906 4.24345 16.7363 5.40556L15.75 7.88603C15.3496 8.89189 15.5547 9.61455 16.2187 10.2884L19.0605 13.1301C19.5488 13.6282 20.0469 13.7551 20.8379 13.5989L22.7812 13.2083L23.7969 14.2337L23.6894 15.5325C23.6504 16.1477 23.6894 16.47 24.2168 16.968L25.1543 17.886Z" fill="white"/>
</g>
<defs>
<clipPath id="clip0_177_835">
<rect width="31.1777" height="28.7779" fill="white" transform="translate(0 0.611328)"/>
</clipPath>
</defs>
</svg>
