<svg width="33" height="30" viewBox="0 0 33 30" fill="none" xmlns="http://www.w3.org/2000/svg">
<g clip-path="url(#clip0_177_917)">
<path d="M3.7412 28.5989C4.83495 29.7024 6.06542 29.6145 7.1787 28.345L19.2978 14.6536L15.6748 11.0305L1.92479 23.1008C0.655262 24.2141 0.586903 25.4446 1.67089 26.5383L3.7412 28.5989ZM26.0654 17.886C26.5537 18.3548 27.1103 18.384 27.5791 17.9153L31.3974 14.1165C31.8564 13.6575 31.8271 13.0715 31.3584 12.6028L30.4111 11.6653C29.8935 11.1575 29.5908 11.0891 29.0048 11.1282L27.6962 11.2649L26.6709 10.2493L27.0712 8.54033C27.2666 7.68095 26.9834 6.84111 26.1142 5.98173L23.5068 3.39384C20.0302 -0.063189 13.7119 -0.444051 10.1963 3.07158C9.62987 3.63798 9.71776 4.28251 10.0693 4.68291C10.3525 4.97587 10.8017 5.12236 11.2412 4.99541C13.6826 4.33134 15.8017 4.24345 17.6474 5.40556L16.6611 7.88603C16.2607 8.89189 16.4658 9.61455 17.1298 10.2884L19.9716 13.1301C20.4599 13.6282 20.958 13.7551 21.749 13.5989L23.6923 13.2083L24.708 14.2337L24.6005 15.5325C24.5615 16.1477 24.6005 16.47 25.1279 16.968L26.0654 17.886Z" fill="black"/>
</g>
<defs>
<clipPath id="clip0_177_917">
<rect width="31.1777" height="28.7779" fill="white" transform="translate(0.911133 0.611328)"/>
</clipPath>
</defs>
</svg>
