<svg width="26" height="26" viewBox="0 0 26 26" fill="none" xmlns="http://www.w3.org/2000/svg">
<g clip-path="url(#clip0_227_308)">
<path d="M12.7148 25.5215C19.7363 25.5215 25.4395 19.8281 25.4395 12.8066C25.4395 5.78515 19.7363 0.0820312 12.7148 0.0820312C5.69336 0.0820312 0 5.78515 0 12.8066C0 19.8281 5.69336 25.5215 12.7148 25.5215ZM12.7148 23.705C6.68945 23.705 1.81641 18.832 1.81641 12.8066C1.81641 6.78125 6.68945 1.9082 12.7148 1.9082C18.7402 1.9082 23.6133 6.78125 23.6133 12.8066C23.6133 18.832 18.7402 23.705 12.7148 23.705Z" fill="white"/>
<path d="M12.4609 15.3847C13.0078 15.3847 13.3301 15.0429 13.3301 14.6035C13.3301 14.5351 13.3301 14.457 13.3301 14.3886C13.3301 13.6562 13.7305 13.207 14.6387 12.5918C15.8887 11.7617 16.6699 11.0293 16.6699 9.60351C16.6699 7.64062 14.9121 6.51758 12.8223 6.51758C10.7129 6.51758 9.33594 7.57226 9.0332 8.76367C8.97461 8.95898 8.94531 9.14453 8.94531 9.34961C8.94531 9.83789 9.31641 10.1113 9.6875 10.1113C10.0684 10.1113 10.3125 9.92578 10.498 9.64258L10.6738 9.37891C11.0156 8.56836 11.7676 7.99219 12.7539 7.99219C14.0039 7.99219 14.7949 8.68555 14.7949 9.69141C14.7949 10.5508 14.2969 11 13.1543 11.791C12.2168 12.4453 11.6016 13.1093 11.6016 14.291C11.6016 14.3691 11.6016 14.4472 11.6016 14.5254C11.6016 15.0918 11.9141 15.3847 12.4609 15.3847ZM12.4414 19.0468C13.1055 19.0468 13.6816 18.5097 13.6816 17.8457C13.6816 17.1718 13.1152 16.6445 12.4414 16.6445C11.7578 16.6445 11.2012 17.1816 11.2012 17.8457C11.2012 18.5 11.7676 19.0468 12.4414 19.0468Z" fill="white"/>
</g>
<defs>
<clipPath id="clip0_227_308">
<rect width="25.8008" height="25.459" fill="white" transform="translate(0 0.0820312)"/>
</clipPath>
</defs>
</svg>
