<svg width="23" height="36" viewBox="0 0 23 36" fill="none" xmlns="http://www.w3.org/2000/svg">
<g clip-path="url(#clip0_240_869)">
<path d="M19.6096 34.9092C19.8049 34.9873 20.1369 34.9482 20.2736 34.6552L22.3635 30.124C22.5099 29.8408 22.3928 29.5771 22.1193 29.4502L19.2971 28.1318L21.1037 24.2744C21.2307 24.0107 21.1232 23.7275 20.8107 23.581L16.9728 21.7549C19.7463 19.2939 20.6935 16.2666 19.6486 13.3857C19.1408 11.9892 18.2424 10.8564 17.1193 10.0752C16.5724 11.706 15.4494 13.0635 13.9943 13.9326C14.0432 14.6455 13.6232 15.3388 12.9006 15.5927C11.9924 15.9345 10.9865 15.456 10.6447 14.5185C10.3127 13.6201 10.7814 12.6142 11.6994 12.2724C12.2658 12.0674 12.9006 12.1748 13.3498 12.5263C14.5021 11.8037 15.3713 10.6416 15.7228 9.27442C14.1408 8.62989 12.3244 8.542 10.6057 9.167C6.90448 10.5244 5.03925 14.5381 6.36737 18.2099C7.39276 21.0127 9.96112 22.8681 12.9201 22.8877L16.6896 33.2392C16.7873 33.4931 16.9338 33.6592 17.1877 33.7861L19.6096 34.9092ZM1.88495 34.5381L6.4162 32.4189C6.6994 32.2822 6.79706 32.0088 6.67011 31.7451L5.34198 28.9033L9.21893 27.1259C9.47284 26.999 9.5705 26.7158 9.43378 26.4131L8.01776 23.3076C8.08612 23.2099 8.14472 23.1025 8.20331 22.9951C6.70917 22.0771 5.49823 20.583 4.84393 18.7763C3.40839 14.8017 5.03925 10.3779 8.82831 8.42481C5.59589 8.26856 2.88104 10.085 1.80682 13.0049C0.7912 15.7978 1.58222 18.8838 3.83807 20.7978L0.0587778 31.1494C-0.0193472 31.4131 -0.0291128 31.6377 0.0880747 31.8916L1.23065 34.3037C1.31854 34.499 1.60175 34.6748 1.88495 34.5381ZM3.76972 10.417L5.17597 9.80176C4.94159 9.19629 4.8244 8.52246 4.8244 7.82911C4.8244 4.7334 7.25604 2.27246 10.342 2.27246C13.4279 2.27246 15.9084 4.7334 15.9084 7.82911C15.9084 8.31739 15.8596 8.84473 15.7228 9.27442C16.2209 9.46973 16.6799 9.75293 17.1193 10.0752C17.3439 9.39161 17.4807 8.59082 17.4807 7.82911C17.4807 3.92285 14.258 0.719727 10.3517 0.719727C6.46503 0.719727 3.2619 3.91309 3.2619 7.82911C3.2619 8.74707 3.44745 9.62598 3.76972 10.417Z" fill="black"/>
</g>
<defs>
<clipPath id="clip0_240_869">
<rect width="22.7933" height="34.5605" fill="white" transform="translate(0 0.719727)"/>
</clipPath>
</defs>
</svg>
