<svg width="23" height="36" viewBox="0 0 23 36" fill="none" xmlns="http://www.w3.org/2000/svg">
<g clip-path="url(#clip0_240_669)">
<path d="M19.6096 34.9093C19.8049 34.9874 20.1369 34.9483 20.2736 34.6553L22.3635 30.1241C22.5099 29.8409 22.3928 29.5772 22.1193 29.4503L19.2971 28.1319L21.1037 24.2745C21.2307 24.0108 21.1232 23.7276 20.8107 23.5811L16.9728 21.755C19.7463 19.294 20.6935 16.2667 19.6486 13.3858C19.1408 11.9893 18.2424 10.8565 17.1193 10.0752C16.5724 11.7061 15.4494 13.0636 13.9943 13.9327C14.0432 14.6456 13.6232 15.3389 12.9006 15.5928C11.9924 15.9346 10.9865 15.4561 10.6447 14.5186C10.3127 13.6202 10.7814 12.6143 11.6994 12.2725C12.2658 12.0675 12.9006 12.1749 13.3498 12.5264C14.5021 11.8038 15.3713 10.6416 15.7228 9.27445C14.1408 8.62992 12.3244 8.54203 10.6057 9.16703C6.90448 10.5244 5.03925 14.5382 6.36737 18.21C7.39276 21.0128 9.96112 22.8682 12.9201 22.8878L16.6896 33.2393C16.7873 33.4932 16.9338 33.6593 17.1877 33.7862L19.6096 34.9093ZM1.88495 34.5382L6.4162 32.419C6.6994 32.2823 6.79706 32.0089 6.67011 31.7452L5.34198 28.9034L9.21893 27.126C9.47284 26.9991 9.5705 26.7159 9.43378 26.4132L8.01776 23.3077C8.08612 23.21 8.14472 23.1026 8.20331 22.9952C6.70917 22.0772 5.49823 20.5831 4.84393 18.7764C3.40839 14.8018 5.03925 10.378 8.82831 8.42484C5.59589 8.26859 2.88104 10.085 1.80682 13.005C0.7912 15.7979 1.58222 18.8839 3.83807 20.7979L0.0587778 31.1495C-0.0193472 31.4132 -0.0291128 31.6378 0.0880747 31.8917L1.23065 34.3038C1.31854 34.4991 1.60175 34.6749 1.88495 34.5382ZM3.76972 10.417L5.17597 9.80179C4.94159 9.19632 4.8244 8.52249 4.8244 7.82914C4.8244 4.73343 7.25604 2.27249 10.342 2.27249C13.4279 2.27249 15.9084 4.73343 15.9084 7.82914C15.9084 8.31742 15.8596 8.84476 15.7228 9.27445C16.2209 9.46976 16.6799 9.75296 17.1193 10.0752C17.3439 9.39164 17.4807 8.59085 17.4807 7.82914C17.4807 3.92288 14.258 0.719757 10.3517 0.719757C6.46503 0.719757 3.2619 3.91312 3.2619 7.82914C3.2619 8.7471 3.44745 9.62601 3.76972 10.417Z" fill="white"/>
</g>
<defs>
<clipPath id="clip0_240_669">
<rect width="22.7933" height="34.5605" fill="white" transform="translate(0 0.719757)"/>
</clipPath>
</defs>
</svg>
