<svg width="26" height="26" viewBox="0 0 26 26" fill="none" xmlns="http://www.w3.org/2000/svg">
<g clip-path="url(#clip0_227_319)">
<path d="M3.7832 25.1457C3.7832 25.6062 4.14974 25.9822 4.61965 25.9822C5.08017 25.9822 5.4561 25.6062 5.4561 25.1457V2.85299C5.4561 2.46766 5.70046 2.21391 6.06699 2.21391H19.3843C19.7509 2.21391 19.9953 2.46766 19.9953 2.85299V25.1457C19.9953 25.6062 20.3618 25.9822 20.8317 25.9822C21.2923 25.9822 21.6682 25.6062 21.6682 25.1457V2.74022C21.6682 1.42446 20.7659 0.541016 19.4125 0.541016H6.03879C4.68544 0.541016 3.7832 1.42446 3.7832 2.74022V25.1457Z" fill="white"/>
<path d="M6.76172 25.3336C6.76172 25.5498 6.94029 25.6532 7.14705 25.5686L11.1037 23.7735C11.3951 23.6514 11.4891 23.5479 11.4891 23.2754V5.81339C11.4891 5.54083 11.3951 5.44685 11.1319 5.33407L7.14705 3.5296C6.94029 3.43561 6.76172 3.5484 6.76172 3.75515V25.3336Z" fill="white"/>
</g>
<defs>
<clipPath id="clip0_227_319">
<rect width="25.8" height="25.46" fill="white" transform="translate(0 0.541016)"/>
</clipPath>
</defs>
</svg>
