<svg width="32" height="32" viewBox="0 0 32 32" fill="none" xmlns="http://www.w3.org/2000/svg">
<g clip-path="url(#clip0_177_848)">
<path d="M31.1797 12.9327C31.1797 19.7811 25.5978 25.363 18.7372 25.363C15.9708 25.363 13.4257 24.4531 11.3602 22.9163L3.25786 31.0309C2.95041 31.3506 2.52009 31.5105 2.07755 31.5105C1.10623 31.5105 0.454563 30.7727 0.454563 29.8506C0.454563 29.3957 0.61446 29.0023 0.909445 28.6948L8.975 20.5925C7.30292 18.4901 6.29471 15.822 6.29471 12.9327C6.29471 6.07214 11.8766 0.490234 18.7372 0.490234C25.5978 0.490234 31.1797 6.07214 31.1797 12.9327ZM28.8805 12.9327C28.8805 7.33853 24.3314 2.78939 18.7372 2.78939C13.1429 2.78939 8.60611 7.33853 8.60611 12.9327C8.60611 18.5146 13.1429 23.0638 18.7372 23.0638C24.3314 23.0638 28.8805 18.5146 28.8805 12.9327Z" fill="white"/>
</g>
<defs>
<clipPath id="clip0_177_848">
<rect width="31.18" height="31.0202" fill="white" transform="matrix(-1 0 0 1 31.1797 0.490234)"/>
</clipPath>
</defs>
</svg>
