<svg width="26" height="24" viewBox="0 0 26 24" fill="none" xmlns="http://www.w3.org/2000/svg">
<g clip-path="url(#clip0_240_574)">
<path d="M3.79883 23.9482H21.2109C23.7402 23.9482 25.0195 22.6787 25.0195 20.1885V4.75879C25.0195 2.26856 23.7402 0.999023 21.2109 0.999023H3.79883C1.2793 0.999023 0 2.25879 0 4.75879V20.1885C0 22.6885 1.2793 23.9482 3.79883 23.9482ZM3.66211 22.2197C2.41211 22.2197 1.72852 21.5556 1.72852 20.2666V8.61621C1.72852 7.31739 2.41211 6.66309 3.66211 6.66309H21.3379C22.5781 6.66309 23.2812 7.31739 23.2812 8.61621V20.2666C23.2812 21.5556 22.5781 22.2197 21.3379 22.2197H3.66211Z" fill="white"/>
<path d="M5.74219 11.2724H19.2969C19.6875 11.2724 19.9805 10.9697 19.9805 10.5791C19.9805 10.208 19.6875 9.91504 19.2969 9.91504H5.74219C5.3418 9.91504 5.04883 10.208 5.04883 10.5791C5.04883 10.9697 5.3418 11.2724 5.74219 11.2724ZM5.74219 15.1201H19.2969C19.6875 15.1201 19.9805 14.8271 19.9805 14.4463C19.9805 14.0654 19.6875 13.7627 19.2969 13.7627H5.74219C5.3418 13.7627 5.04883 14.0654 5.04883 14.4463C5.04883 14.8271 5.3418 15.1201 5.74219 15.1201ZM5.74219 18.9677H14.4727C14.8633 18.9677 15.1562 18.6748 15.1562 18.3037C15.1562 17.9131 14.8633 17.6103 14.4727 17.6103H5.74219C5.3418 17.6103 5.04883 17.9131 5.04883 18.3037C5.04883 18.6748 5.3418 18.9677 5.74219 18.9677Z" fill="white"/>
</g>
<defs>
<clipPath id="clip0_240_574">
<rect width="25.3809" height="22.9785" fill="white" transform="translate(0 0.969727)"/>
</clipPath>
</defs>
</svg>
