<svg width="24" height="26" viewBox="0 0 24 26" fill="none" xmlns="http://www.w3.org/2000/svg">
<g clip-path="url(#clip0_240_660)">
<path d="M0 20.1436C0 20.9444 0.615234 21.4815 1.62109 21.4815H7.35352C7.44141 23.8643 9.24805 25.8663 11.7773 25.8663C14.3066 25.8663 16.1133 23.8741 16.2012 21.4815H21.9238C22.9395 21.4815 23.5547 20.9444 23.5547 20.1436C23.5547 18.8838 22.3047 17.7608 21.2402 16.6475C20.2832 15.6221 20.1367 13.5323 19.9707 11.7452C19.8047 7.19434 18.5254 4.14746 15.2734 3.04395C14.8828 1.37403 13.5645 0.114258 11.7773 0.114258C9.99023 0.114258 8.66211 1.37403 8.28125 3.04395C5.0293 4.14746 3.75 7.19434 3.58398 11.7452C3.41797 13.5323 3.27148 15.6221 2.31445 16.6475C1.24023 17.7608 0 18.8838 0 20.1436ZM2.08008 19.8506V19.7041C2.25586 19.2452 3.06641 18.4151 3.76953 17.6436C4.82422 16.4913 5.10742 14.4795 5.29297 11.9014C5.48828 6.9209 7.00195 5.13379 9.17969 4.53809C9.53125 4.4502 9.72656 4.28418 9.74609 3.95215C9.82422 2.64356 10.5762 1.70606 11.7773 1.70606C12.9785 1.70606 13.7305 2.64356 13.7988 3.95215C13.8281 4.28418 14.0234 4.4502 14.375 4.53809C16.5527 5.13379 18.0664 6.9209 18.2617 11.9014C18.4473 14.4795 18.7305 16.4913 19.7852 17.6436C20.4883 18.4151 21.2988 19.2452 21.4746 19.7041V19.8506H2.08008ZM9.0332 21.4815H14.5215C14.4238 23.2295 13.3203 24.3526 11.7773 24.3526C10.2344 24.3526 9.13086 23.2295 9.0332 21.4815Z" fill="white"/>
</g>
<defs>
<clipPath id="clip0_240_660">
<rect width="23.916" height="25.7715" fill="white" transform="translate(0 0.114258)"/>
</clipPath>
</defs>
</svg>
