<svg width="28" height="24" viewBox="0 0 28 24" fill="none" xmlns="http://www.w3.org/2000/svg">
<g clip-path="url(#clip0_240_585)">
<path d="M25.1429 21.5948C25.1429 22.0733 24.7522 22.4639 24.2835 22.4639H5.82715L7.56386 20.7354H24.2835C24.7522 20.7354 25.1429 21.126 25.1429 21.5948Z" fill="white"/>
<path d="M4.83024 21.2724L18.9123 7.20994L16.9103 5.19822L2.82829 19.2607L1.60759 21.956C1.4904 22.2295 1.78337 22.542 2.05681 22.4248L4.83024 21.2724ZM19.9572 6.19432L21.1388 5.02244C21.7541 4.41697 21.7834 3.78221 21.2365 3.2451L20.8849 2.89353C20.3576 2.36619 19.7131 2.41502 19.1174 3.00096L17.926 4.17283L19.9572 6.19432Z" fill="white"/>
</g>
<defs>
<clipPath id="clip0_240_585">
<rect width="27.0824" height="23.0973" fill="white" transform="translate(0 0.910339)"/>
</clipPath>
</defs>
</svg>
