<svg width="26" height="27" viewBox="0 0 26 27" fill="none" xmlns="http://www.w3.org/2000/svg">
<g clip-path="url(#clip0_227_278)">
<path d="M12.7148 26.1426C19.7363 26.1426 25.4395 20.4492 25.4395 13.4277C25.4395 6.40624 19.7363 0.703125 12.7148 0.703125C5.69336 0.703125 0 6.40624 0 13.4277C0 20.4492 5.69336 26.1426 12.7148 26.1426ZM12.7148 24.3261C6.68945 24.3261 1.81641 19.4531 1.81641 13.4277C1.81641 7.40234 6.68945 2.52929 12.7148 2.52929C18.7402 2.52929 23.6133 7.40234 23.6133 13.4277C23.6133 19.4531 18.7402 24.3261 12.7148 24.3261ZM21.2988 21.6699L21.2695 21.5527C20.5957 19.7363 17.2949 17.666 12.7148 17.666C8.1543 17.666 4.85352 19.7265 4.16016 21.5332L4.13086 21.6699C6.38672 23.9258 10.0684 25.2734 12.7246 25.2734C15.3809 25.2734 19.0039 23.9551 21.2988 21.6699ZM12.7148 15.5176C15.1367 15.5371 17.0215 13.4668 17.0215 10.7715C17.0215 8.23243 15.1172 6.12304 12.7148 6.12304C10.3125 6.12304 8.39844 8.23243 8.4082 10.7715C8.41797 13.4668 10.293 15.498 12.7148 15.5176Z" fill="white" fill-opacity="0.7"/>
</g>
<defs>
<clipPath id="clip0_227_278">
<rect width="25.8008" height="25.459" fill="white" transform="translate(0 0.703125)"/>
</clipPath>
</defs>
</svg>
