<svg width="26" height="26" viewBox="0 0 26 26" fill="none" xmlns="http://www.w3.org/2000/svg">
<g clip-path="url(#clip0_240_951)">
<path d="M12.7148 25.71C19.7363 25.71 25.4395 20.0166 25.4395 12.9951C25.4395 5.97363 19.7363 0.270508 12.7148 0.270508C5.69336 0.270508 0 5.97363 0 12.9951C0 20.0166 5.69336 25.71 12.7148 25.71ZM12.7148 23.8935C6.68945 23.8935 1.81641 19.0205 1.81641 12.9951C1.81641 6.96973 6.68945 2.09668 12.7148 2.09668C18.7402 2.09668 23.6133 6.96973 23.6133 12.9951C23.6133 19.0205 18.7402 23.8935 12.7148 23.8935ZM21.2988 21.2373L21.2695 21.1201C20.5957 19.3037 17.2949 17.2334 12.7148 17.2334C8.1543 17.2334 4.85352 19.2939 4.16016 21.1006L4.13086 21.2373C6.38672 23.4932 10.0684 24.8408 12.7246 24.8408C15.3809 24.8408 19.0039 23.5225 21.2988 21.2373ZM12.7148 15.085C15.1367 15.1045 17.0215 13.0342 17.0215 10.3389C17.0215 7.79981 15.1172 5.69043 12.7148 5.69043C10.3125 5.69043 8.39844 7.79981 8.4082 10.3389C8.41797 13.0342 10.293 15.0654 12.7148 15.085Z" fill="black"/>
</g>
<defs>
<clipPath id="clip0_240_951">
<rect width="25.8008" height="25.459" fill="white" transform="translate(0 0.270508)"/>
</clipPath>
</defs>
</svg>
