<svg width="26" height="27" viewBox="0 0 26 27" fill="none" xmlns="http://www.w3.org/2000/svg">
<g clip-path="url(#clip0_227_298)">
<path d="M11.5122 26.0578H13.9431C14.8187 26.0578 15.48 25.5362 15.6755 24.6793L16.2065 22.3881L16.7094 22.2111L18.7027 23.4406C19.4478 23.9063 20.286 23.8131 20.9101 23.1891L22.5866 21.5032C23.22 20.8699 23.3224 20.0409 22.8567 19.3051L21.6086 17.3119L21.7856 16.8276L24.0768 16.2966C24.9244 16.1011 25.4554 15.4304 25.4554 14.555V12.1706C25.4554 11.3044 24.9338 10.643 24.0768 10.4382L21.8042 9.8886L21.6179 9.38563L22.866 7.40174C23.3318 6.65661 23.2386 5.82766 22.5959 5.1943L20.9194 3.50845C20.3047 2.89372 19.4665 2.78195 18.7213 3.24767L16.7281 4.47712L16.2065 4.28152L15.6755 1.99957C15.48 1.13337 14.8187 0.621094 13.9431 0.621094H11.5122C10.6366 0.621094 9.97539 1.13337 9.77977 1.99957L9.24888 4.28152L8.71797 4.47712L6.73408 3.24767C5.98895 2.78195 5.15068 2.89372 4.53595 3.50845L2.85011 5.1943C2.21675 5.82766 2.12361 6.65661 2.58931 7.40174L3.8374 9.38563L3.6418 9.8886L1.37848 10.4382C0.521588 10.643 0 11.3044 0 12.1706V14.555C0 15.4304 0.530903 16.1011 1.37848 16.2966L3.66043 16.8276L3.84671 17.3119L2.59863 19.3051C2.13292 20.0409 2.23538 20.8699 2.85942 21.5032L4.54526 23.1891C5.16931 23.8131 6.00758 23.9063 6.7527 23.4406L8.7366 22.2111L9.24888 22.3881L9.77977 24.6793C9.97539 25.5362 10.6366 26.0578 11.5122 26.0578ZM11.6799 24.4558C11.4283 24.4558 11.2886 24.3347 11.2421 24.1018L10.5435 21.1586C9.85426 20.9724 9.20231 20.7116 8.69934 20.4135L6.12866 22.0155C5.93306 22.1366 5.72816 22.1273 5.55119 21.9317L4.10751 20.488C3.92123 20.311 3.91191 20.1341 4.04231 19.9199L5.63501 17.3492C5.38353 16.8648 5.0948 16.2129 4.90851 15.5236L1.95595 14.8343C1.7231 14.7878 1.60202 14.6481 1.60202 14.3873V12.3289C1.60202 12.0681 1.71379 11.9377 1.95595 11.8818L4.8992 11.1832C5.08548 10.4661 5.41148 9.79545 5.61638 9.34838L4.033 6.78701C3.89328 6.56347 3.9026 6.37719 4.08888 6.20022L5.54188 4.76585C5.72816 4.58889 5.90513 4.56095 6.12866 4.69135L8.68071 6.26542C9.18368 5.99532 9.87295 5.70658 10.5529 5.5203L11.2421 2.57705C11.2886 2.33489 11.4283 2.22312 11.6799 2.22312H13.7756C14.0363 2.22312 14.1667 2.32557 14.2132 2.57705L14.9119 5.53892C15.6197 5.71589 16.2437 6.00463 16.7561 6.27473L19.3174 4.69135C19.5502 4.56095 19.7179 4.58889 19.9135 4.76585L21.3664 6.20022C21.5435 6.37719 21.5528 6.56347 21.4131 6.78701L19.8296 9.34838C20.0532 9.79545 20.3699 10.4568 20.5561 11.1832L23.4994 11.8818C23.7416 11.9377 23.8534 12.0681 23.8534 12.3289V14.3873C23.8534 14.6481 23.7322 14.7878 23.4994 14.8343L20.5469 15.5236C20.3606 16.2129 20.0812 16.8648 19.811 17.3492L21.4037 19.9199C21.5341 20.1341 21.5249 20.311 21.3478 20.488L19.9041 21.9317C19.7179 22.1273 19.5223 22.1366 19.3174 22.0155L16.7467 20.4135C16.253 20.7116 15.6104 20.9724 14.9119 21.1586L14.2132 24.1018C14.1667 24.344 14.0363 24.4558 13.7756 24.4558H11.6799ZM12.7323 17.9174C15.2658 17.9174 17.3149 15.8682 17.3149 13.3348C17.3149 10.7921 15.2658 8.75228 12.7323 8.75228C10.1896 8.75228 8.1405 10.7921 8.1405 13.3348C8.1405 15.8682 10.1896 17.9174 12.7323 17.9174ZM12.7323 16.3246C11.0744 16.3246 9.74248 14.9834 9.74248 13.3348C9.74248 11.6769 11.0744 10.345 12.7323 10.345C14.3809 10.345 15.7222 11.6769 15.7222 13.3348C15.7222 14.9834 14.3809 16.3246 12.7323 16.3246Z" fill="white"/>
</g>
<defs>
<clipPath id="clip0_227_298">
<rect width="25.8" height="25.46" fill="white" transform="translate(0 0.621094)"/>
</clipPath>
</defs>
</svg>
