<svg width="26" height="26" viewBox="0 0 26 26" fill="none" xmlns="http://www.w3.org/2000/svg">
<g clip-path="url(#clip0_240_651)">
<path d="M11.5122 25.7067H13.9431C14.8187 25.7067 15.48 25.1851 15.6755 24.3282L16.2065 22.037L16.7094 21.86L18.7027 23.0895C19.4478 23.5552 20.286 23.462 20.9101 22.838L22.5866 21.1521C23.22 20.5188 23.3224 19.6898 22.8567 18.954L21.6086 16.9608L21.7856 16.4765L24.0768 15.9455C24.9244 15.75 25.4554 15.0793 25.4554 14.2039V11.8195C25.4554 10.9533 24.9338 10.2919 24.0768 10.0871L21.8042 9.53749L21.6179 9.03453L22.866 7.05064C23.3318 6.3055 23.2386 5.47655 22.5959 4.8432L20.9194 3.15735C20.3047 2.54262 19.4665 2.43085 18.7213 2.89656L16.7281 4.12602L16.2065 3.93042L15.6755 1.64847C15.48 0.782263 14.8187 0.269989 13.9431 0.269989H11.5122C10.6366 0.269989 9.97539 0.782263 9.77977 1.64847L9.24888 3.93042L8.71797 4.12602L6.73408 2.89656C5.98895 2.43085 5.15068 2.54262 4.53595 3.15735L2.85011 4.8432C2.21675 5.47655 2.12361 6.3055 2.58931 7.05064L3.8374 9.03453L3.6418 9.53749L1.37848 10.0871C0.521588 10.2919 0 10.9533 0 11.8195V14.2039C0 15.0793 0.530903 15.75 1.37848 15.9455L3.66043 16.4765L3.84671 16.9608L2.59863 18.954C2.13292 19.6898 2.23538 20.5188 2.85942 21.1521L4.54526 22.838C5.16931 23.462 6.00758 23.5552 6.7527 23.0895L8.7366 21.86L9.24888 22.037L9.77977 24.3282C9.97539 25.1851 10.6366 25.7067 11.5122 25.7067ZM11.6799 24.1047C11.4283 24.1047 11.2886 23.9836 11.2421 23.7507L10.5435 20.8075C9.85426 20.6212 9.20231 20.3605 8.69934 20.0624L6.12866 21.6644C5.93306 21.7855 5.72816 21.7762 5.55119 21.5806L4.10751 20.1369C3.92123 19.9599 3.91191 19.783 4.04231 19.5688L5.63501 16.9981C5.38353 16.5137 5.0948 15.8618 4.90851 15.1725L1.95595 14.4832C1.7231 14.4367 1.60202 14.297 1.60202 14.0362V11.9778C1.60202 11.717 1.71379 11.5866 1.95595 11.5307L4.8992 10.8321C5.08548 10.115 5.41148 9.44435 5.61638 8.99727L4.033 6.4359C3.89328 6.21237 3.9026 6.02609 4.08888 5.84912L5.54188 4.41475C5.72816 4.23779 5.90513 4.20984 6.12866 4.34024L8.68071 5.91432C9.18368 5.64421 9.87295 5.35547 10.5529 5.16919L11.2421 2.22594C11.2886 1.98378 11.4283 1.87201 11.6799 1.87201H13.7756C14.0363 1.87201 14.1667 1.97447 14.2132 2.22594L14.9119 5.18782C15.6197 5.36479 16.2437 5.65352 16.7561 5.92363L19.3174 4.34024C19.5502 4.20984 19.7179 4.23779 19.9135 4.41475L21.3664 5.84912C21.5435 6.02609 21.5528 6.21237 21.4131 6.4359L19.8296 8.99727C20.0532 9.44435 20.3699 10.1056 20.5561 10.8321L23.4994 11.5307C23.7416 11.5866 23.8534 11.717 23.8534 11.9778V14.0362C23.8534 14.297 23.7322 14.4367 23.4994 14.4832L20.5469 15.1725C20.3606 15.8618 20.0812 16.5137 19.811 16.9981L21.4037 19.5688C21.5341 19.783 21.5249 19.9599 21.3478 20.1369L19.9041 21.5806C19.7179 21.7762 19.5223 21.7855 19.3174 21.6644L16.7467 20.0624C16.253 20.3605 15.6104 20.6212 14.9119 20.8075L14.2132 23.7507C14.1667 23.9929 14.0363 24.1047 13.7756 24.1047H11.6799ZM12.7323 17.5663C15.2658 17.5663 17.3149 15.5171 17.3149 12.9837C17.3149 10.441 15.2658 8.40117 12.7323 8.40117C10.1896 8.40117 8.1405 10.441 8.1405 12.9837C8.1405 15.5171 10.1896 17.5663 12.7323 17.5663ZM12.7323 15.9735C11.0744 15.9735 9.74248 14.6323 9.74248 12.9837C9.74248 11.3258 11.0744 9.99387 12.7323 9.99387C14.3809 9.99387 15.7222 11.3258 15.7222 12.9837C15.7222 14.6323 14.3809 15.9735 12.7323 15.9735Z" fill="black"/>
</g>
<defs>
<clipPath id="clip0_240_651">
<rect width="25.8" height="25.46" fill="white" transform="translate(0 0.269989)"/>
</clipPath>
</defs>
</svg>
