<svg width="26" height="26" viewBox="0 0 26 26" fill="none" xmlns="http://www.w3.org/2000/svg">
<g clip-path="url(#clip0_227_288)">
<path d="M12.7148 25.6016C19.7363 25.6016 25.4395 19.9082 25.4395 12.8867C25.4395 5.86523 19.7363 0.162109 12.7148 0.162109C5.69336 0.162109 0 5.86523 0 12.8867C0 19.9082 5.69336 25.6016 12.7148 25.6016ZM12.7148 23.7851C6.68945 23.7851 1.81641 18.9121 1.81641 12.8867C1.81641 6.86133 6.68945 1.98828 12.7148 1.98828C18.7402 1.98828 23.6133 6.86133 23.6133 12.8867C23.6133 18.9121 18.7402 23.7851 12.7148 23.7851Z" fill="white"/>
<path d="M6.51453 15.7671C6.82703 16.1089 7.36414 16.1089 7.66688 15.7768L12.7157 10.4839L17.7646 15.7768C18.0771 16.1089 18.6044 16.1089 18.9267 15.7671C19.2294 15.4643 19.2294 14.9663 18.8974 14.6245L13.7802 9.24365C13.1064 8.53076 12.3251 8.53076 11.6611 9.24365L6.54383 14.6245C6.2118 14.9663 6.2118 15.4643 6.51453 15.7671Z" fill="white"/>
</g>
<defs>
<clipPath id="clip0_227_288">
<rect width="25.8008" height="25.459" fill="white" transform="translate(0 0.162109)"/>
</clipPath>
</defs>
</svg>
